Coordinates
version=1
nRows=4
nColumns=60
inDegrees=yes

Units are S.I. units (second, meters, Newtons, ...)
If the header above contains a line with 'inDegrees', this indicates whether rotational values are in degrees (yes) or radians (no).

endheader
time	pelvis_tilt	pelvis_list	pelvis_rotation	pelvis_tx	pelvis_ty	pelvis_tz	hip_flexion_r	hip_adduction_r	hip_rotation_r	knee_angle_r_beta	knee_angle_r	ankle_angle_r	subtalar_angle_r	mtp_angle_r	hip_flexion_l	hip_adduction_l	hip_rotation_l	knee_angle_l_beta	knee_angle_l	ankle_angle_l	subtalar_angle_l	mtp_angle_l	L5_S1_Flex_Ext	L5_S1_Lat_Bending	L5_S1_axial_rotation	L4_L5_Flex_Ext	L4_L5_Lat_Bending	L4_L5_axial_rotation	L3_L4_Flex_Ext	L3_L4_Lat_Bending	L3_L4_axial_rotation	L2_L3_Flex_Ext	L2_L3_Lat_Bending	L2_L3_axial_rotation	L1_L2_Flex_Ext	L1_L2_Lat_Bending	L1_L2_axial_rotation	L1_T12_Flex_Ext	L1_T12_Lat_Bending	L1_T12_axial_rotation	Abs_r3	Abs_r2	Abs_r1	Abs_t1	Abs_t2	arm_flex_r	arm_add_r	arm_rot_r	elbow_flex_r	pro_sup_r	wrist_flex_r	wrist_dev_r	arm_flex_l	arm_add_l	arm_rot_l	elbow_flex_l	pro_sup_l	wrist_flex_l	wrist_dev_l
      3.62000000	      0.33918118	     11.00985687	     91.14935968	      0.40155229	      0.94315465	      0.28049413	     -0.78346980	     -4.77190829	      0.63939786	      0.29537021	    -16.92346660	      8.75808572	      0.00000000	      0.00000000	     -0.68866949	     -6.08631593	     -1.70069499	      0.27655896	    -15.84566115	      9.82765471	      0.00000000	      0.00000000	     -6.21518232	      0.08635285	     -0.19382253	    -11.54221509	      0.11484929	     -0.20593644	    -10.21092303	      0.20995832	     -0.20593644	     -7.10333187	      0.20995832	     -0.16959472	     -5.77141830	      0.17609074	     -0.15748081	     -3.55135518	      0.13376057	     -0.14536690	    -44.39442580	      0.97684073	     -1.07798278	      0.00000000	      0.00000000	     55.02535735	    -28.74063382	     23.01644417	     68.03345676	     52.41266627	      2.65949816	     33.43398700	     56.71843134	    -24.98956935	     26.56879924	     61.59566768	     51.77909287	      6.73020000	     20.91805323
      3.63000000	      0.33338577	     10.79536073	     91.06879512	      0.40138432	      0.94307758	      0.28172019	     -0.42002175	     -4.79182254	      0.81045487	      0.29627874	    -16.97552162	      8.55260600	      0.00000000	      0.00000000	     -0.35784597	     -6.04409086	     -1.67307921	      0.27741531	    -15.89472660	      9.63631037	      0.00000000	      0.00000000	     -6.23433506	      0.08213946	     -0.18841073	    -11.57778363	      0.10924549	     -0.20018640	    -10.24238906	      0.19971389	     -0.20018640	     -7.12522154	      0.19971389	     -0.16485939	     -5.78920353	      0.16749879	     -0.15308372	     -3.56229905	      0.12723403	     -0.14130805	    -44.53123187	      0.92917803	     -1.04788395	      0.00000000	      0.00000000	     56.55643545	    -28.17312014	     23.52672757	     66.39129584	     52.46309205	      2.63329964	     33.13437506	     58.45414791	    -24.70031326	     27.49549096	     59.77302302	     51.70200477	      6.63832080	     20.76036597
      3.64000000	      0.32571192	     10.54377438	     91.00706545	      0.40113158	      0.94292945	      0.28289793	     -0.07152749	     -4.83504212	      0.86262494	      0.29516138	    -16.91150128	      8.39063543	      0.00000000	      0.00000000	     -0.00557312	     -5.99918351	     -1.70006042	      0.27733418	    -15.89007775	      9.48156863	      0.00000000	      0.00000000	     -6.24221130	      0.08009691	     -0.18157293	    -11.59241060	      0.10652889	     -0.19292123	    -10.25532894	      0.19474763	     -0.19292123	     -7.13422329	      0.19474763	     -0.15887631	     -5.79651741	      0.16333362	     -0.14752800	     -3.56679954	      0.12407011	     -0.13617969	    -44.58749109	      0.90607227	     -1.00985414	      0.00000000	      0.00000000	     58.07396617	    -27.60468068	     24.09624703	     64.59299084	     52.53567343	      2.61063874	     32.75005041	     60.18021401	    -24.36969447	     28.57279155	     57.83988515	     51.59293813	      6.55735008	     20.57458911
      3.65000000	      0.33178301	     10.32286587	     90.98174870	      0.40087980	      0.94286158	      0.28407006	      0.22534864	     -4.84334284	      0.93101504	      0.29394083	    -16.84156897	      8.18855672	      0.00000000	      0.00000000	      0.33109686	     -5.97234041	     -1.66859711	      0.27769186	    -15.91057169	      9.30386813	      0.00000000	      0.00000000	     -6.25771685	      0.08046870	     -0.18035025	    -11.62120597	      0.10702338	     -0.19162214	    -10.28080302	      0.19565161	     -0.19162214	     -7.15194459	      0.19565161	     -0.15780647	     -5.81091587	      0.16409178	     -0.14653458	     -3.57565941	      0.12464602	     -0.13526269	    -44.69824570	      0.91027807	     -1.00305398	      0.00000000	      0.00000000	     59.56375453	    -27.01447750	     24.63704545	     62.80332399	     52.62592197	      2.59787307	     32.26265210	     61.89506689	    -24.01657595	     29.67004590	     55.92888859	     51.44500964	      6.49346375	     20.35082653
